<svg id="eNhlPoLJQGf1" xmlns="http://www.w3.org/2000/svg" xmlns:xlink="http://www.w3.org/1999/xlink" viewBox="0 0 250 180" shape-rendering="geometricPrecision" text-rendering="geometricPrecision" project-id="33a89d2d80654317803e8bc5f0656667" export-id="3a64c65a840a4701b026b771e876909b" cached="false"><g transform="translate(-18.0378-68.5458)"><path d="M74.999996,150h12.739949q5.574942,43.270822,11.707377,34.135411c6.132435-9.135411,3.902459-61.324357,11.707377-68.571781s5.017445,129.338642,13.937352,122.091218s2.229977-104.15485,10.592389-104.15485s3.524256,37.664355,8.919907,33-.358582-16.5,5.39565-16.5q5.754232,0,24.151538.000002" transform="translate(.000004 0.000002)" fill="none" stroke="#d93f34" stroke-width="4" stroke-linecap="round" stroke-linejoin="round" stroke-dasharray="435.23"/><path d="M214.848611,237.654849q-39.024589-42.927048-32.892154-61.045609c6.132435-18.118561,31.361733-22.442079,41.254567,5.566721" transform="translate(-40.6971-87.6548)" fill="none" stroke="#d93f34" stroke-width="4" stroke-linecap="round" stroke-linejoin="round" stroke-dasharray="129.19"/><path d="M214.848611,237.654849q-39.024589-42.927048-32.892154-61.045609c6.132435-18.118561,31.361733-22.442079,41.254567,5.566721" transform="matrix(-1 0 0 1 405.725-87.6548)" fill="none" stroke="#d93f34" stroke-width="4" stroke-linecap="round" stroke-linejoin="round" stroke-dasharray="129.19"/><path d="M190.876365,150h50.174471" transform="matrix(1.18078 0 0 1-34.0695 0)" fill="none" stroke="#d93f34" stroke-width="4" stroke-linecap="round" stroke-linejoin="round" stroke-dasharray="50.18"/></g><g transform="translate(-18.0378-68.5458)"><ellipse rx="25" ry="25" transform="translate(50 150)" fill="#8d99a6" stroke="#2e3a46" stroke-width="2"/><ellipse rx="16" ry="16" transform="translate(50 150)" fill="#b8bfc8" stroke="#2e3a46"/></g></svg>